<svg width="77" height="104" viewBox="0 0 77 104" fill="none" xmlns="http://www.w3.org/2000/svg">
<path d="M16.5157 84.8421C16.5157 89.3853 12.8363 93.0526 8.27814 93.0526C3.72002 93.0526 0.0405731 89.3853 0.0405731 84.8421C0.0405731 80.2989 3.72002 76.6316 8.27814 76.6316C12.8363 76.6316 16.5157 80.2989 16.5157 84.8421ZM71.4329 19.6505C70.2796 8.42947 61.4379 0 50.784 0H21.3484C10.7494 0 2.01759 8.21053 0.864331 19.3221L0.0405731 25.1242C-0.398764 29.2295 2.78643 32.8421 6.8503 32.8421C10.3101 32.8421 13.1658 30.2695 13.6051 26.8758L14.374 20.9095C14.7584 16.8042 17.7788 13.6842 21.3484 13.6842H50.784C54.3536 13.6842 57.3741 16.8042 57.7036 20.9095L63.1953 81.4484C63.6896 86.1558 60.4494 90.3158 56.3307 90.3158L27.7188 86.5937C27.4972 89.0887 26.7812 91.5152 25.6123 93.7326C24.4434 95.95 22.8448 97.9142 20.9091 99.5116L54.5733 104H56.3307C61.9322 104 67.369 101.592 71.2132 97.3221C73.2705 94.9949 74.8365 92.2785 75.8177 89.335C76.799 86.3915 77.1754 83.2811 76.9246 80.1895L71.4329 19.6505ZM36.6154 32.5137C33.4302 30.4884 29.2016 31.4737 27.1696 34.7032L7.67406 65.6842H8.27814C13.1109 65.6842 17.5042 67.5453 20.9091 70.501L38.8121 41.9284C40.844 38.7537 39.8555 34.5389 36.6154 32.5137Z" fill="url(#paint0_linear_473_665)"/>
<defs>
<linearGradient id="paint0_linear_473_665" x1="67.5231" y1="6.39821e-06" x2="0.212476" y2="95.2865" gradientUnits="userSpaceOnUse">
<stop stop-color="#0E3BDB"/>
<stop offset="1" stop-color="#FC0D0D"/>
</linearGradient>
</defs>
</svg>
